<svg width="17" height="17" viewBox="0 0 17 17" fill="none" xmlns="http://www.w3.org/2000/svg">
<path d="M14.8311 1.23866C13.1799 -0.412562 10.4934 -0.412562 8.8422 1.23866L2.53656 7.54427C2.34196 7.73887 2.34196 8.05414 2.53656 8.24874C2.73117 8.44334 3.04643 8.44334 3.24103 8.24874L9.54664 1.94313C10.7707 0.720063 12.9026 0.720063 14.1266 1.94313C15.3891 3.20562 15.3891 5.26016 14.1266 6.52264L5.32167 15.4267C4.56856 16.1798 3.25644 16.1798 2.50336 15.4267C1.72641 14.6498 1.72641 13.3858 2.50336 12.6089L10.9561 4.05651C11.2382 3.77435 11.7306 3.77435 12.0128 4.05651C12.3042 4.3479 12.3042 4.82228 12.0128 5.1137L3.91277 13.3133C3.74476 13.4813 3.74476 13.8497 3.91277 14.0178C4.10737 14.2124 4.42263 14.2124 4.61724 14.0178L12.7172 5.81814C13.3974 5.13797 13.3974 4.03217 12.7172 3.35204C12.0585 2.69332 10.9093 2.69429 10.2516 3.35204L1.79889 11.9044C0.642558 13.0607 0.642558 14.9748 1.79889 16.1312C2.36374 16.696 3.1144 17.0003 3.91273 17.0003C4.71107 17.0003 5.46179 16.696 6.02614 16.1312L14.8311 7.22708C16.4823 5.57585 16.4823 2.88985 14.8311 1.23866Z" fill="white"/>
</svg>
